
****** The.Edge.Of.Love.2008.DVDRiP.XViD.OPTIONAL.NORDIC-Zen_Bud ******

Format                           : AVI
Format/Info                      : Audio Video Interleave
File size                        : 857 MiB
Duration                         : 1h 46mn
Overall bit rate                 : 1 129 Kbps

Video

Format                           : MPEG-4 Visual
Codec ID/Hint                    : XviD
Duration                         : 1h 46mn
Bit rate                         : 988 Kbps
Width                            : 720 pixels
Height                           : 576 pixels
Display aspect ratio             : 16:9
Stream size                      : 750 MiB (88%)
Writing library                  : XviD 1.1.2 (UTC 2006-11-01)

Audio

Format                           : MPEG Audio
Codec ID/Hint                    : MP3
Duration                         : 1h 46mn
Bit rate                         : 128 Kbps
Channel(s)                       : 2 channels
Sampling rate                    : 48.0 KHz
Stream size                      : 97.2 MiB (11%)
Language                         : English

Text #1
Language                         : Danish

Text #2
Language                         : Swedish

Text #3
Language                         : Norwegian

Text #4
Language                         : Finnish